font.ufo
<glyph name="exclam" format="1">
  <advance width="270"/>
  <unicode hex="0021"/>
  <outline>
    <contour>
      <point x="142" y="-22" type="curve"/>
      <point x="183" y="-1"/>
      <point x="207" y="27"/>
      <point x="216" y="50" type="curve"/>
      <point x="207" y="68"/>
      <point x="186" y="101"/>
      <point x="141" y="121" type="curve"/>
      <point x="120" y="116"/>
      <point x="69" y="74"/>
      <point x="66" y="51" type="curve"/>
      <point x="83" y="17"/>
      <point x="114" y="-9"/>
    </contour>
    <contour>
      <point x="215" y="682" type="line"/>
      <point x="89" y="710" type="line"/>
      <point x="94" y="194" type="line"/>
      <point x="183" y="175" type="line"/>
    </contour>
  </outline>
</glyph>
<glyph name="percent" format="1">
  <advance width="855"/>
  <unicode hex="0025"/>
  <outline>
    <contour>
      <point x="713" y="682" type="line"/>
      <point x="611" y="715" type="line"/>
      <point x="533" y="646"/>
      <point x="404" y="617"/>
      <point x="238" y="689" type="curve"/>
      <point x="218" y="700" type="line"/>
      <point x="88" y="765"/>
      <point x="-98" y="542"/>
      <point x="69" y="414" type="curve" smooth="yes"/>
      <point x="90" y="398"/>
      <point x="106" y="385"/>
      <point x="149" y="362" type="curve" smooth="yes"/>
      <point x="321" y="270"/>
      <point x="445" y="512"/>
      <point x="342" y="618" type="curve"/>
      <point x="404" y="593"/>
      <point x="466" y="580"/>
      <point x="535" y="594" type="curve"/>
      <point x="163" y="1" type="line"/>
      <point x="275" y="-30" type="line"/>
    </contour>
    <contour>
      <point x="800" y="261" type="curve" smooth="yes"/>
      <point x="765" y="290"/>
      <point x="736" y="307"/>
      <point x="687" y="332" type="curve" smooth="yes"/>
      <point x="557" y="397"/>
      <point x="371" y="174"/>
      <point x="538" y="46" type="curve" smooth="yes"/>
      <point x="559" y="30"/>
      <point x="575" y="17"/>
      <point x="618" y="-6" type="curve" smooth="yes"/>
      <point x="796" y="-101"/>
      <point x="923" y="161"/>
    </contour>
    <contour>
      <point x="717" y="260" type="curve" smooth="yes"/>
      <point x="813" y="198"/>
      <point x="711" y="-8"/>
      <point x="611" y="51" type="curve" smooth="yes"/>
      <point x="511" y="109"/>
      <point x="623" y="322"/>
    </contour>
    <contour>
      <point x="248" y="628" type="curve" smooth="yes"/>
      <point x="344" y="566"/>
      <point x="242" y="360"/>
      <point x="142" y="419" type="curve" smooth="yes"/>
      <point x="42" y="477"/>
      <point x="154" y="690"/>
    </contour>
  </outline>
</glyph>
<glyph name="T" format="1">
  <advance width="647"/>
  <unicode hex="0054"/>
  <outline>
    <contour>
      <point x="248" y="0" type="move" name="cedilla"/>
    </contour>
    <contour>
      <point x="420" y="743" type="move" name="top"/>
    </contour>
    <contour>
      <point x="80" y="577" type="line"/>
      <point x="268" y="577" type="line"/>
      <point x="268" y="0" type="line"/>
      <point x="408" y="-29" type="line"/>
      <point x="406" y="577" type="line"/>
      <point x="647" y="577" type="line"/>
      <point x="567" y="667" type="line"/>
      <point x="0" y="667" type="line"/>
    </contour>
  </outline>
</glyph>
<glyph name="b" format="1">
  <advance width="608"/>
  <unicode hex="0062"/>
  <outline>
    <contour>
      <point x="188" y="248" type="line"/>
      <point x="524" y="690"/>
      <point x="545" y="-20"/>
      <point x="188" y="42" type="curve"/>
    </contour>
    <contour>
      <point x="188" y="681" type="line"/>
      <point x="63" y="709" type="line"/>
      <point x="63" y="52" type="line"/>
      <point x="126" y="14"/>
      <point x="207" y="-14"/>
      <point x="284" y="-29" type="curve" smooth="yes"/>
      <point x="472" y="-66"/>
      <point x="663" y="228"/>
      <point x="501" y="376" type="curve" smooth="yes"/>
      <point x="456" y="418"/>
      <point x="397" y="458"/>
      <point x="362" y="472" type="curve" smooth="yes"/>
      <point x="291" y="500"/>
      <point x="255" y="488"/>
      <point x="188" y="428" type="curve"/>
    </contour>
  </outline>
</glyph>
<glyph name="u" format="1">
  <advance width="587"/>
  <unicode hex="0075"/>
  <outline>
    <contour>
      <point x="221" y="7" type="move" name="ogonek"/>
    </contour>
    <contour>
      <point x="225" y="507" type="move" name="top"/>
    </contour>
    <contour>
      <point x="399" y="-2" type="line"/>
      <point x="524" y="-30" type="line"/>
      <point x="524" y="449" type="line"/>
      <point x="399" y="477" type="line"/>
      <point x="399" y="226" type="line"/>
      <point x="350" y="110"/>
      <point x="205" y="19"/>
      <point x="175" y="84" type="curve" smooth="yes"/>
      <point x="165" y="105"/>
      <point x="170" y="449"/>
      <point x="170" y="449" type="curve"/>
      <point x="170" y="449"/>
      <point x="45" y="477"/>
      <point x="46" y="477" type="curve" smooth="yes"/>
      <point x="46" y="477"/>
      <point x="45" y="178"/>
      <point x="50" y="145" type="curve" smooth="yes"/>
      <point x="56" y="109"/>
      <point x="207" y="-26"/>
      <point x="251" y="-29" type="curve" smooth="yes"/>
      <point x="306" y="-33"/>
      <point x="361" y="9"/>
      <point x="399" y="48" type="curve"/>
    </contour>
  </outline>
</glyph>
<glyph name="w" format="1">
  <advance width="869"/>
  <unicode hex="0077"/>
  <outline>
    <contour>
      <point x="133" y="450" type="line"/>
      <point x="8" y="478" type="line"/>
      <point x="206" y="-1" type="line"/>
      <point x="207" y="-1" type="line"/>
      <point x="331" y="-29" type="line"/>
      <point x="332" y="-29" type="line"/>
      <point x="446" y="300" type="line"/>
      <point x="571" y="-1" type="line"/>
      <point x="696" y="-29" type="line"/>
      <point x="697" y="-29" type="line"/>
      <point x="863" y="450" type="line"/>
      <point x="738" y="478" type="line"/>
      <point x="623" y="147" type="line"/>
      <point x="498" y="450" type="line"/>
      <point x="373" y="478" type="line"/>
      <point x="258" y="147" type="line"/>
    </contour>
  </outline>
</glyph>
<glyph name="exclamdown" format="1">
  <advance width="425"/>
  <unicode hex="00A1"/>
  <outline>
    <contour>
      <point x="237" y="544" type="curve"/>
      <point x="196" y="523"/>
      <point x="172" y="495"/>
      <point x="163" y="472" type="curve"/>
      <point x="172" y="454"/>
      <point x="193" y="421"/>
      <point x="238" y="401" type="curve"/>
      <point x="259" y="406"/>
      <point x="310" y="448"/>
      <point x="313" y="471" type="curve"/>
      <point x="296" y="505"/>
      <point x="265" y="531"/>
    </contour>
    <contour>
      <point x="164" y="-160" type="line"/>
      <point x="290" y="-188" type="line"/>
      <point x="285" y="328" type="line"/>
      <point x="196" y="347" type="line"/>
    </contour>
  </outline>
</glyph>
<glyph name="threesuperior" format="1">
  <advance width="290"/>
  <unicode hex="00B3"/>
  <outline>
    <contour>
      <point x="243" y="625" type="curve" smooth="yes"/>
      <point x="220" y="657"/>
      <point x="195" y="682"/>
      <point x="162" y="709" type="curve" smooth="yes"/>
      <point x="119" y="744"/>
      <point x="33" y="672"/>
      <point x="13" y="652" type="curve"/>
      <point x="60" y="594" type="line"/>
      <point x="105" y="639"/>
      <point x="153" y="681"/>
      <point x="178" y="652" type="curve" smooth="yes"/>
      <point x="204" y="622"/>
      <point x="170" y="577"/>
      <point x="82" y="569" type="curve"/>
      <point x="112" y="512" type="line"/>
      <point x="144" y="513"/>
      <point x="170" y="520"/>
      <point x="190" y="530" type="curve"/>
      <point x="245" y="467"/>
      <point x="111" y="385"/>
      <point x="36" y="503" type="curve"/>
      <point x="10" y="487" type="line"/>
      <point x="37" y="445"/>
      <point x="58" y="424"/>
      <point x="82" y="405" type="curve" smooth="yes"/>
      <point x="177" y="328"/>
      <point x="326" y="466"/>
      <point x="266" y="514" type="curve" smooth="yes"/>
      <point x="254" y="524"/>
      <point x="235" y="535"/>
      <point x="216" y="546" type="curve"/>
      <point x="247" y="572"/>
      <point x="256" y="606"/>
    </contour>
  </outline>
</glyph>
<glyph name="Ograve" format="1">
  <advance width="823"/>
  <unicode hex="00D2"/>
  <outline>
    <contour>
      <point x="454" y="743" type="move" name="top"/>
    </contour>
    <component base="O" xOffset="10"/>
    <component base="grave" xOffset="163" yOffset="188"/>
  </outline>
</glyph>
<glyph name="Uacute" format="1">
  <advance width="666"/>
  <unicode hex="00DA"/>
  <outline>
    <contour>
      <point x="241" y="23" type="move" name="ogonek"/>
    </contour>
    <contour>
      <point x="313" y="743" type="move" name="top"/>
    </contour>
    <component base="U" xOffset="-20"/>
    <component base="acute" xOffset="118" yOffset="163"/>
  </outline>
</glyph>
<glyph name="germandbls" format="1">
  <advance width="586"/>
  <unicode hex="00DF"/>
  <outline>
    <contour>
      <point x="275" y="363" type="curve"/>
      <point x="286" y="348"/>
      <point x="348" y="306"/>
      <point x="391" y="269" type="curve" smooth="yes"/>
      <point x="492" y="180"/>
      <point x="386" y="11"/>
      <point x="247" y="111" type="curve"/>
      <point x="227" y="74" type="line"/>
      <point x="281" y="23"/>
      <point x="347" y="-29"/>
      <point x="374" y="-29" type="curve" smooth="yes"/>
      <point x="513" y="-29"/>
      <point x="649" y="140"/>
      <point x="511" y="251" type="curve" smooth="yes"/>
      <point x="490" y="268"/>
      <point x="437" y="296"/>
      <point x="402" y="318" type="curve"/>
      <point x="445" y="361"/>
      <point x="520" y="443"/>
      <point x="502" y="498" type="curve" smooth="yes"/>
      <point x="485" y="549"/>
      <point x="363" y="648"/>
      <point x="318" y="677" type="curve" smooth="yes"/>
      <point x="282" y="700"/>
      <point x="75" y="688"/>
      <point x="76" y="513" type="curve" smooth="yes"/>
      <point x="77" y="408"/>
      <point x="76" y="0"/>
      <point x="76" y="0" type="curve"/>
      <point x="203" y="-29" type="line"/>
      <point x="203" y="-29"/>
      <point x="202" y="386"/>
      <point x="201" y="475" type="curve" smooth="yes"/>
      <point x="200" y="597"/>
      <point x="317" y="611"/>
      <point x="360" y="574" type="curve" smooth="yes"/>
      <point x="431" y="513"/>
      <point x="354" y="451"/>
    </contour>
  </outline>
</glyph>
<glyph name="Emacron" format="1">
  <advance width="647"/>
  <unicode hex="0112"/>
  <outline>
    <contour>
      <point x="440" y="101" type="move" name="ogonek"/>
    </contour>
    <contour>
      <point x="342" y="743" type="move" name="top"/>
    </contour>
    <component base="E" xOffset="15"/>
    <component base="macron" xOffset="120" yOffset="167"/>
  </outline>
</glyph>
<glyph name="edotaccent" format="1">
  <advance width="558"/>
  <unicode hex="0117"/>
  <outline>
    <contour>
      <point x="279" y="43" type="move" name="ogonek"/>
    </contour>
    <contour>
      <point x="263" y="507" type="move" name="top"/>
    </contour>
    <component base="e"/>
    <component base="dotaccent" xOffset="181" yOffset="-24"/>
  </outline>
</glyph>
<glyph name="Gbreve" format="1">
  <advance width="823"/>
  <unicode hex="011E"/>
  <outline>
    <contour>
      <point x="461" y="723" type="move" name="top"/>
    </contour>
    <component base="G" xOffset="10"/>
    <component base="breve" xOffset="234" yOffset="215"/>
  </outline>
</glyph>
<glyph name="rcommaaccent" format="1">
  <advance width="465"/>
  <unicode hex="0157"/>
  <outline>
    <contour>
      <point x="207" y="507" type="move" name="top"/>
    </contour>
    <component base="r"/>
    <component base="comma" xOffset="-9" yOffset="-176"/>
  </outline>
</glyph>
<glyph name="dvmvLL" format="1">
  <advance width="0"/>
  <unicode hex="0963"/>
  <outline>
    <contour>
      <point x="-41" y="-257" type="line"/>
      <point x="-66" y="-264"/>
      <point x="-87" y="-272"/>
      <point x="-104" y="-281" type="curve"/>
      <point x="-123" y="-218"/>
      <point x="72" y="-206"/>
      <point x="18" y="-123" type="curve" smooth="yes"/>
      <point x="-1" y="-93"/>
      <point x="-93" y="-31"/>
      <point x="-118" y="-32" type="curve" smooth="yes"/>
      <point x="-161" y="-33"/>
      <point x="-198" y="-61"/>
      <point x="-223" y="-91" type="curve"/>
      <point x="-249" y="-66"/>
      <point x="-288" y="-30"/>
      <point x="-314" y="-23" type="curve"/>
      <point x="-351" y="-11"/>
      <point x="-451" y="-84"/>
      <point x="-446" y="-127" type="curve"/>
      <point x="-440" y="-168"/>
      <point x="-386" y="-263"/>
      <point x="-309" y="-301" type="curve"/>
      <point x="-294" y="-279" type="line"/>
      <point x="-374" y="-227"/>
      <point x="-410" y="-34"/>
      <point x="-238" y="-111" type="curve"/>
      <point x="-251" y="-130"/>
      <point x="-259" y="-148"/>
      <point x="-262" y="-159" type="curve"/>
      <point x="-194" y="-200" type="line"/>
      <point x="-179" y="-140"/>
      <point x="-102" y="-56"/>
      <point x="-56" y="-100" type="curve" smooth="yes"/>
      <point x="-4" y="-151"/>
      <point x="-221" y="-189"/>
      <point x="-166" y="-264" type="curve"/>
      <point x="-137" y="-301" type="line"/>
      <point x="-242" y="-384"/>
      <point x="-52" y="-483"/>
      <point x="46" y="-389" type="curve"/>
      <point x="-9" y="-349" type="line"/>
      <point x="-132" y="-450"/>
      <point x="-146" y="-332"/>
      <point x="-7" y="-306" type="curve"/>
    </contour>
  </outline>
</glyph>
<glyph name="quotedblbase" format="1">
  <advance width="528"/>
  <unicode hex="201E"/>
  <outline>
    <contour>
      <point x="132" y="-143" type="line"/>
      <point x="161" y="-110"/>
      <point x="210" y="-8"/>
      <point x="218" y="43" type="curve"/>
      <point x="220" y="71"/>
      <point x="175" y="110"/>
      <point x="143" y="125" type="curve"/>
      <point x="122" y="120"/>
      <point x="71" y="78"/>
      <point x="68" y="55" type="curve"/>
      <point x="78" y="35"/>
      <point x="97" y="14"/>
      <point x="113" y="0" type="curve"/>
      <point x="115" y="-21"/>
      <point x="103" y="-78"/>
      <point x="91" y="-116" type="curve"/>
    </contour>
    <contour>
      <point x="326" y="-143" type="line"/>
      <point x="355" y="-110"/>
      <point x="404" y="-8"/>
      <point x="412" y="43" type="curve"/>
      <point x="414" y="71"/>
      <point x="369" y="110"/>
      <point x="337" y="125" type="curve"/>
      <point x="316" y="120"/>
      <point x="265" y="78"/>
      <point x="262" y="55" type="curve"/>
      <point x="272" y="35"/>
      <point x="291" y="14"/>
      <point x="307" y="0" type="curve"/>
      <point x="309" y="-21"/>
      <point x="297" y="-78"/>
      <point x="285" y="-116" type="curve"/>
    </contour>
  </outline>
</glyph>
<glyph name="partialdiff" format="1">
  <advance width="634"/>
  <unicode hex="2202"/>
  <outline>
    <contour>
      <point x="269" y="570" type="line"/>
      <point x="273" y="571"/>
      <point x="325" y="619"/>
      <point x="376" y="618" type="curve" smooth="yes"/>
      <point x="412" y="617"/>
      <point x="447" y="593"/>
      <point x="466" y="513" type="curve" smooth="yes"/>
      <point x="475" y="475"/>
      <point x="476" y="415"/>
      <point x="469" y="350" type="curve"/>
      <point x="410" y="388"/>
      <point x="337" y="434"/>
      <point x="294" y="449" type="curve" smooth="yes"/>
      <point x="226" y="472"/>
      <point x="31" y="255"/>
      <point x="76" y="170" type="curve" smooth="yes"/>
      <point x="113" y="98"/>
      <point x="244" y="-31"/>
      <point x="350" y="-28" type="curve" smooth="yes"/>
      <point x="605" y="-21"/>
      <point x="621" y="402"/>
      <point x="572" y="572" type="curve" smooth="yes"/>
      <point x="566" y="594"/>
      <point x="386" y="691"/>
      <point x="328" y="711" type="curve" smooth="yes"/>
      <point x="286" y="726"/>
      <point x="174" y="637"/>
      <point x="166" y="636" type="curve"/>
    </contour>
    <contour>
      <point x="244" y="73" type="curve" smooth="yes"/>
      <point x="131" y="129"/>
      <point x="214" y="457"/>
      <point x="461" y="300" type="curve"/>
      <point x="435" y="155"/>
      <point x="366" y="13"/>
    </contour>
  </outline>
</glyph>
<glyph name="infinity" format="1">
  <advance width="817"/>
  <unicode hex="221E"/>
  <outline>
    <contour>
      <point x="583" y="480" type="curve" smooth="yes"/>
      <point x="539" y="466"/>
      <point x="469" y="401"/>
      <point x="397" y="342" type="curve"/>
      <point x="307" y="426"/>
      <point x="271" y="454"/>
      <point x="246" y="462" type="curve" smooth="yes"/>
      <point x="191" y="480"/>
      <point x="46" y="365"/>
      <point x="55" y="299" type="curve" smooth="yes"/>
      <point x="60" y="257"/>
      <point x="216" y="99"/>
      <point x="253" y="110" type="curve" smooth="yes"/>
      <point x="296" y="124"/>
      <point x="367" y="189"/>
      <point x="439" y="248" type="curve"/>
      <point x="529" y="164"/>
      <point x="565" y="136"/>
      <point x="590" y="128" type="curve" smooth="yes"/>
      <point x="645" y="110"/>
      <point x="790" y="225"/>
      <point x="781" y="291" type="curve" smooth="yes"/>
      <point x="776" y="333"/>
      <point x="620" y="491"/>
    </contour>
    <contour>
      <point x="632" y="376" type="curve" smooth="yes"/>
      <point x="730" y="292"/>
      <point x="586" y="142"/>
      <point x="470" y="275" type="curve"/>
      <point x="534" y="329"/>
      <point x="612" y="393"/>
    </contour>
    <contour>
      <point x="204" y="214" type="curve" smooth="yes"/>
      <point x="106" y="298"/>
      <point x="250" y="448"/>
      <point x="366" y="315" type="curve"/>
      <point x="302" y="261"/>
      <point x="224" y="197"/>
    </contour>
  </outline>
</glyph>
<glyph name="ffi" format="1">
  <advance width="929"/>
  <unicode hex="FB03"/>
  <outline>
    <contour>
      <point x="53" y="408" type="line"/>
      <point x="127" y="408" type="line"/>
      <point x="127" y="287"/>
      <point x="127" y="176"/>
      <point x="128" y="-1" type="curve"/>
      <point x="253" y="-29" type="line"/>
      <point x="248" y="408" type="line"/>
      <point x="410" y="408" type="line"/>
      <point x="380" y="478" type="line"/>
      <point x="248" y="478" type="line"/>
      <point x="250" y="571"/>
      <point x="284" y="638"/>
      <point x="470" y="569" type="curve"/>
      <point x="489" y="607" type="line"/>
      <point x="439" y="628"/>
      <point x="366" y="665"/>
      <point x="335" y="677" type="curve" smooth="yes"/>
      <point x="267" y="705"/>
      <point x="127" y="626"/>
      <point x="127" y="565" type="curve" smooth="yes"/>
      <point x="127" y="478" type="line"/>
      <point x="23" y="478" type="line"/>
    </contour>
    <component base="fi" xOffset="298"/>
  </outline>
</glyph>
<glyph name="dvAI" format="1">
  <advance width="537"/>
  <outline>
    <contour>
      <point x="442" y="625" type="move" name="abvm.bindu"/>
    </contour>
    <component base="dvE" xOffset="-10"/>
    <component base="dvmE" xOffset="538"/>
  </outline>
</glyph>
<glyph name="dvAnusvara" format="1">
  <advance width="0"/>
  <outline>
    <contour>
      <point x="80" y="619" type="move" name="_abvm.bindu"/>
    </contour>
    <contour>
      <point x="80" y="693" type="curve"/>
      <point x="122" y="715"/>
      <point x="148" y="745"/>
      <point x="157" y="770" type="curve"/>
      <point x="148" y="789"/>
      <point x="126" y="824"/>
      <point x="78" y="845" type="curve"/>
      <point x="57" y="840"/>
      <point x="3" y="795"/>
      <point x="0" y="771" type="curve"/>
      <point x="18" y="734"/>
      <point x="50" y="707"/>
    </contour>
  </outline>
</glyph>
<glyph name="dvBH_NA" format="1">
  <advance width="844"/>
  <outline>
    <contour>
      <point x="660" y="0" type="line"/>
      <point x="784" y="-56" type="line"/>
      <point x="784" y="523" type="line"/>
      <point x="859" y="523" type="line"/>
      <point x="859" y="619" type="line"/>
      <point x="318" y="619" type="line"/>
      <point x="356" y="523" type="line"/>
      <point x="660" y="523" type="line"/>
      <point x="660" y="271" type="line"/>
      <point x="344" y="270" type="line"/>
      <point x="344" y="384" type="line"/>
      <point x="346" y="467" type="line"/>
      <point x="308" y="510"/>
      <point x="250" y="554"/>
      <point x="187" y="607" type="curve" smooth="yes"/>
      <point x="101" y="679"/>
      <point x="-21" y="519"/>
      <point x="42" y="462" type="curve"/>
      <point x="93" y="414"/>
      <point x="119" y="400"/>
      <point x="174" y="345" type="curve" smooth="yes"/>
      <point x="178" y="340"/>
      <point x="197" y="338"/>
      <point x="220" y="340" type="curve"/>
      <point x="220" y="273" type="line"/>
      <point x="62" y="280"/>
      <point x="51" y="156"/>
      <point x="82" y="119" type="curve" smooth="yes"/>
      <point x="115" y="80"/>
      <point x="166" y="41"/>
      <point x="188" y="26" type="curve" smooth="yes"/>
      <point x="216" y="7"/>
      <point x="344" y="-9"/>
      <point x="344" y="172" type="curve"/>
      <point x="624" y="172" type="line"/>
      <point x="533" y="147"/>
      <point x="421" y="116"/>
      <point x="411" y="112" type="curve"/>
      <point x="358" y="73"/>
      <point x="327" y="-9"/>
      <point x="391" y="-51" type="curve" smooth="yes"/>
      <point x="432" y="-79"/>
      <point x="461" y="-95"/>
      <point x="516" y="-120" type="curve" smooth="yes"/>
      <point x="563" y="-141"/>
      <point x="679" y="-12"/>
      <point x="589" y="63" type="curve"/>
      <point x="660" y="82" type="line"/>
    </contour>
    <contour>
      <point x="220" y="432" type="curve"/>
      <point x="183" y="426"/>
      <point x="138" y="426"/>
      <point x="124" y="437" type="curve" smooth="yes"/>
      <point x="90" y="465"/>
      <point x="163" y="580"/>
      <point x="214" y="528" type="curve" smooth="yes"/>
      <point x="221" y="521"/>
      <point x="220" y="472"/>
    </contour>
    <contour>
      <point x="536" y="49" type="curve"/>
      <point x="547" y="-25"/>
      <point x="483" y="-69"/>
      <point x="448" y="-31" type="curve" smooth="yes"/>
      <point x="417" y="4"/>
      <point x="482" y="41"/>
    </contour>
    <contour>
      <point x="219" y="176" type="curve"/>
      <point x="220" y="99"/>
      <point x="173" y="97"/>
      <point x="157" y="115" type="curve" smooth="yes"/>
      <point x="137" y="138"/>
      <point x="153" y="184"/>
    </contour>
  </outline>
</glyph>
<glyph name="dvBH_RA" format="1">
  <advance width="695"/>
  <outline>
    <contour>
      <point x="504" y="184" type="line"/>
      <point x="442" y="111"/>
      <point x="387" y="62"/>
      <point x="283" y="-3" type="curve"/>
      <point x="367" y="-69" type="line"/>
      <point x="434" y="0"/>
      <point x="511" y="82"/>
      <point x="532" y="138" type="curve"/>
    </contour>
    <component base="dvBHA"/>
  </outline>
</glyph>
<glyph name="dvB_LA" format="1">
  <advance width="1026"/>
  <outline>
    <contour>
      <point x="438" y="355" type="line"/>
      <point x="402" y="378"/>
      <point x="314" y="436"/>
      <point x="280" y="460" type="curve" smooth="yes"/>
      <point x="221" y="500"/>
      <point x="2" y="348"/>
      <point x="47" y="263" type="curve" smooth="yes"/>
      <point x="84" y="191"/>
      <point x="159" y="71"/>
      <point x="265" y="71" type="curve"/>
      <point x="367" y="72"/>
      <point x="435" y="214"/>
      <point x="435" y="214" type="curve"/>
      <point x="410" y="306" type="line"/>
      <point x="386" y="267"/>
      <point x="362" y="239"/>
      <point x="338" y="218" type="curve"/>
      <point x="216" y="336" type="line"/>
      <point x="271" y="367"/>
      <point x="345" y="374"/>
      <point x="414" y="314" type="curve"/>
    </contour>
    <contour>
      <point x="-15" y="523" type="line"/>
      <point x="587" y="523" type="line"/>
      <point x="587" y="619" type="line"/>
      <point x="-15" y="619" type="line"/>
    </contour>
    <contour>
      <point x="144" y="201" type="curve" smooth="yes"/>
      <point x="120" y="226"/>
      <point x="141" y="277"/>
      <point x="185" y="315" type="curve"/>
      <point x="309" y="196" type="line"/>
      <point x="231" y="148"/>
      <point x="163" y="180"/>
    </contour>
    <component base="dvLA" xOffset="325"/>
  </outline>
</glyph>
<glyph name="dvB_NA" format="1">
  <advance width="624"/>
  <outline>
    <contour>
      <point x="484" y="232" type="line"/>
      <point x="474" y="228" type="line"/>
      <point x="453" y="306" type="line"/>
      <point x="430" y="271" type="line"/>
      <point x="430" y="211" type="line"/>
      <point x="420" y="208"/>
      <point x="411" y="204"/>
      <point x="400" y="200" type="curve"/>
      <point x="381" y="218" type="line"/>
      <point x="371" y="209"/>
      <point x="361" y="202"/>
      <point x="352" y="196" type="curve"/>
      <point x="362" y="186" type="line"/>
      <point x="193" y="120" type="line"/>
      <point x="225" y="91"/>
      <point x="264" y="71"/>
      <point x="308" y="71" type="curve" smooth="yes"/>
      <point x="326" y="71"/>
      <point x="344" y="75"/>
      <point x="360" y="83" type="curve"/>
      <point x="430" y="109" type="line"/>
      <point x="430" y="1" type="line"/>
      <point x="555" y="-55" type="line"/>
      <point x="555" y="523" type="line"/>
      <point x="630" y="523" type="line"/>
      <point x="630" y="619" type="line"/>
      <point x="-12" y="619" type="line"/>
      <point x="-12" y="523" type="line"/>
      <point x="430" y="523" type="line"/>
      <point x="430" y="387" type="line"/>
      <point x="394" y="410"/>
      <point x="349" y="441"/>
      <point x="323" y="460" type="curve"/>
      <point x="264" y="500"/>
      <point x="45" y="348"/>
      <point x="90" y="263" type="curve"/>
      <point x="111" y="220"/>
      <point x="146" y="162"/>
      <point x="193" y="120" type="curve"/>
      <point x="136" y="98"/>
      <point x="91" y="80"/>
      <point x="86" y="77" type="curve"/>
      <point x="38" y="33"/>
      <point x="17" y="-52"/>
      <point x="85" y="-87" type="curve" smooth="yes"/>
      <point x="129" y="-110"/>
      <point x="160" y="-122"/>
      <point x="217" y="-141" type="curve" smooth="yes"/>
      <point x="266" y="-157"/>
      <point x="367" y="-15"/>
      <point x="269" y="49" type="curve"/>
      <point x="340" y="76" type="line"/>
      <point x="360" y="83" type="line"/>
      <point x="387" y="96"/>
      <point x="411" y="119"/>
      <point x="430" y="141" type="curve"/>
      <point x="430" y="109" type="line"/>
      <point x="519" y="143" type="line"/>
    </contour>
    <contour>
      <point x="187" y="201" type="curve" smooth="yes"/>
      <point x="163" y="226"/>
      <point x="184" y="277"/>
      <point x="228" y="315" type="curve"/>
      <point x="352" y="196" type="line"/>
      <point x="274" y="148"/>
      <point x="206" y="180"/>
    </contour>
    <contour>
      <point x="381" y="218" type="curve"/>
      <point x="259" y="336" type="line"/>
      <point x="307" y="363"/>
      <point x="369" y="372"/>
      <point x="430" y="334" type="curve"/>
      <point x="430" y="271" type="line"/>
      <point x="414" y="249"/>
      <point x="397" y="232"/>
    </contour>
    <contour>
      <point x="218" y="29" type="curve"/>
      <point x="237" y="-43"/>
      <point x="178" y="-94"/>
      <point x="139" y="-60" type="curve" smooth="yes"/>
      <point x="104" y="-29"/>
      <point x="165" y="15"/>
    </contour>
    <contour>
      <point x="478" y="214" type="curve"/>
      <point x="474" y="228" type="line"/>
      <point x="465" y="225"/>
      <point x="449" y="219"/>
      <point x="430" y="211" type="curve"/>
      <point x="430" y="141" type="line"/>
      <point x="460" y="177"/>
      <point x="478" y="214"/>
    </contour>
    <contour>
      <point x="401" y="149" type="line"/>
      <point x="425" y="176" type="line"/>
      <point x="400" y="200" type="line"/>
      <point x="388" y="195"/>
      <point x="375" y="191"/>
      <point x="362" y="186" type="curve"/>
    </contour>
  </outline>
</glyph>
<glyph name="dvC_CA" format="1">
  <advance width="1264"/>
  <outline>
    <contour>
      <point x="149" y="319" type="line"/>
      <point x="241" y="319" type="line"/>
      <point x="214" y="285"/>
      <point x="201" y="248"/>
      <point x="226" y="220" type="curve" smooth="yes"/>
      <point x="279" y="159"/>
      <point x="303" y="138"/>
      <point x="364" y="89" type="curve" smooth="yes"/>
      <point x="426" y="39"/>
      <point x="645" y="51"/>
      <point x="760" y="253" type="curve"/>
      <point x="682" y="325" type="line"/>
      <point x="446" y="2"/>
      <point x="158" y="212"/>
      <point x="469" y="319" type="curve"/>
      <point x="371" y="402" type="line"/>
      <point x="53" y="402" type="line"/>
    </contour>
    <contour>
      <point x="-9" y="523" type="line"/>
      <point x="718" y="523" type="line"/>
      <point x="718" y="619" type="line"/>
      <point x="-9" y="619" type="line"/>
    </contour>
    <component base="dvCA" xOffset="498"/>
  </outline>
</glyph>
<glyph name="dvC_NA" format="1">
  <advance width="788"/>
  <outline>
    <contour>
      <point x="601" y="236" type="line"/>
      <point x="601" y="236"/>
      <point x="212" y="86"/>
      <point x="195" y="76" type="curve"/>
      <point x="147" y="32"/>
      <point x="126" y="-53"/>
      <point x="194" y="-88" type="curve" smooth="yes"/>
      <point x="238" y="-111"/>
      <point x="269" y="-123"/>
      <point x="326" y="-142" type="curve" smooth="yes"/>
      <point x="375" y="-158"/>
      <point x="476" y="-16"/>
      <point x="378" y="48" type="curve"/>
      <point x="636" y="147" type="line"/>
    </contour>
    <contour>
      <point x="327" y="28" type="curve"/>
      <point x="336" y="-6"/>
      <point x="319" y="-90"/>
      <point x="261" y="-70" type="curve" smooth="yes"/>
      <point x="201" y="-49"/>
      <point x="274" y="14"/>
    </contour>
    <component base="dvCA" xOffset="32"/>
  </outline>
</glyph>
<glyph name="dvC_YA" format="1">
  <advance width="1194"/>
  <outline>
    <contour>
      <point x="108" y="319" type="line"/>
      <point x="200" y="319" type="line"/>
      <point x="173" y="285"/>
      <point x="160" y="248"/>
      <point x="185" y="220" type="curve" smooth="yes"/>
      <point x="238" y="159"/>
      <point x="262" y="138"/>
      <point x="323" y="89" type="curve" smooth="yes"/>
      <point x="377" y="46"/>
      <point x="513" y="69"/>
      <point x="640" y="217" type="curve" smooth="yes"/>
      <point x="660" y="240"/>
      <point x="680" y="266"/>
      <point x="546" y="291" type="curve"/>
      <point x="330" y="39"/>
      <point x="141" y="220"/>
      <point x="428" y="319" type="curve"/>
      <point x="330" y="402" type="line"/>
      <point x="12" y="402" type="line"/>
    </contour>
    <contour>
      <point x="-50" y="523" type="line"/>
      <point x="677" y="523" type="line"/>
      <point x="677" y="619" type="line"/>
      <point x="-50" y="619" type="line"/>
    </contour>
    <component base="dvYA" xOffset="518"/>
  </outline>
</glyph>
<glyph name="dvDH" format="1">
  <advance width="478"/>
  <outline>
    <contour>
      <point x="308" y="364" type="line"/>
      <point x="284" y="366"/>
      <point x="246" y="354"/>
      <point x="209" y="334" type="curve"/>
      <point x="189" y="348"/>
      <point x="173" y="362"/>
      <point x="161" y="376" type="curve"/>
      <point x="266" y="367"/>
      <point x="383" y="471"/>
      <point x="333" y="532" type="curve" smooth="yes"/>
      <point x="306" y="565"/>
      <point x="269" y="597"/>
      <point x="214" y="625" type="curve" smooth="yes"/>
      <point x="177" y="644"/>
      <point x="-51" y="521"/>
      <point x="35" y="429" type="curve" smooth="yes"/>
      <point x="64" y="398"/>
      <point x="135" y="340"/>
      <point x="173" y="314" type="curve"/>
      <point x="109" y="272"/>
      <point x="56" y="215"/>
      <point x="88" y="178" type="curve" smooth="yes"/>
      <point x="130" y="128"/>
      <point x="178" y="88"/>
      <point x="220" y="50" type="curve" smooth="yes"/>
      <point x="279" y="-4"/>
      <point x="497" y="59"/>
      <point x="576" y="221" type="curve"/>
      <point x="508" y="317" type="line"/>
      <point x="461" y="199"/>
      <point x="262" y="72"/>
      <point x="204" y="127" type="curve" smooth="yes"/>
      <point x="141" y="187"/>
      <point x="274" y="268"/>
      <point x="382" y="287" type="curve"/>
    </contour>
    <contour>
      <point x="414" y="523" type="line"/>
      <point x="697" y="523" type="line"/>
      <point x="697" y="619" type="line"/>
      <point x="375" y="619" type="line"/>
    </contour>
    <contour>
      <point x="256" y="537" type="curve" smooth="yes"/>
      <point x="276" y="519"/>
      <point x="205" y="444"/>
      <point x="125" y="444" type="curve"/>
      <point x="118" y="520"/>
      <point x="226" y="562"/>
    </contour>
  </outline>
</glyph>
<glyph name="dvDH_N_YA" format="1">
  <advance width="1090"/>
  <outline>
    <contour>
      <point x="368" y="148" type="line"/>
      <point x="368" y="148"/>
      <point x="106" y="30"/>
      <point x="90" y="19" type="curve"/>
      <point x="45" y="-28"/>
      <point x="29" y="-114"/>
      <point x="100" y="-144" type="curve" smooth="yes"/>
      <point x="145" y="-165"/>
      <point x="177" y="-174"/>
      <point x="235" y="-190" type="curve" smooth="yes"/>
      <point x="285" y="-203"/>
      <point x="377" y="-55"/>
      <point x="274" y="3" type="curve"/>
      <point x="407" y="62" type="line"/>
    </contour>
    <contour>
      <point x="225" y="-21" type="curve"/>
      <point x="248" y="-91"/>
      <point x="193" y="-146"/>
      <point x="151" y="-115" type="curve" smooth="yes"/>
      <point x="115" y="-86"/>
      <point x="172" y="-37"/>
    </contour>
    <component base="dvDH"/>
    <component base="dvYA" xOffset="427"/>
  </outline>
</glyph>
<glyph name="dvDH_RA" format="1">
  <advance width="692"/>
  <outline>
    <contour>
      <point x="489" y="2" type="line"/>
      <point x="613" y="-54" type="line"/>
      <point x="613" y="523" type="line"/>
      <point x="697" y="523" type="line"/>
      <point x="697" y="619" type="line"/>
      <point x="375" y="619" type="line"/>
      <point x="414" y="523" type="line"/>
      <point x="489" y="523" type="line"/>
      <point x="489" y="265" type="line"/>
      <point x="426" y="172"/>
      <point x="294" y="121"/>
      <point x="243" y="170" type="curve" smooth="yes"/>
      <point x="180" y="230"/>
      <point x="291" y="268"/>
      <point x="399" y="287" type="curve"/>
      <point x="325" y="364" type="line"/>
      <point x="296" y="366"/>
      <point x="252" y="353"/>
      <point x="212" y="332" type="curve"/>
      <point x="190" y="347"/>
      <point x="174" y="362"/>
      <point x="161" y="376" type="curve"/>
      <point x="266" y="367"/>
      <point x="383" y="471"/>
      <point x="333" y="532" type="curve" smooth="yes"/>
      <point x="306" y="565"/>
      <point x="269" y="597"/>
      <point x="214" y="625" type="curve" smooth="yes"/>
      <point x="177" y="644"/>
      <point x="-51" y="521"/>
      <point x="35" y="429" type="curve" smooth="yes"/>
      <point x="65" y="397"/>
      <point x="139" y="336"/>
      <point x="177" y="311" type="curve"/>
      <point x="132" y="280"/>
      <point x="103" y="241"/>
      <point x="130" y="209" type="curve" smooth="yes"/>
      <point x="172" y="159"/>
      <point x="196" y="133"/>
      <point x="240" y="97" type="curve" smooth="yes"/>
      <point x="254" y="85"/>
      <point x="279" y="78"/>
      <point x="311" y="76" type="curve"/>
      <point x="274" y="52"/>
      <point x="240" y="29"/>
      <point x="214" y="10" type="curve"/>
      <point x="298" y="-56" type="line"/>
      <point x="354" y="-2"/>
      <point x="430" y="60"/>
      <point x="489" y="114" type="curve"/>
    </contour>
    <contour>
      <point x="256" y="537" type="curve" smooth="yes"/>
      <point x="276" y="519"/>
      <point x="205" y="444"/>
      <point x="125" y="444" type="curve"/>
      <point x="118" y="520"/>
      <point x="226" y="562"/>
    </contour>
  </outline>
</glyph>
<glyph name="dvD_YA" format="1">
  <advance width="712"/>
  <outline>
    <contour>
      <point x="-10" y="523" type="line"/>
      <point x="319" y="523" type="line"/>
      <point x="318" y="469" type="line"/>
      <point x="318" y="469"/>
      <point x="197" y="461"/>
      <point x="180" y="454" type="curve" smooth="yes"/>
      <point x="117" y="429"/>
      <point x="97" y="340"/>
      <point x="160" y="265" type="curve"/>
      <point x="110" y="226"/>
      <point x="87" y="162"/>
      <point x="108" y="136" type="curve" smooth="yes"/>
      <point x="160" y="70"/>
      <point x="189" y="34"/>
      <point x="252" y="-10" type="curve" smooth="yes"/>
      <point x="305" y="-47"/>
      <point x="429" y="15"/>
      <point x="525" y="81" type="curve"/>
      <point x="525" y="0" type="line"/>
      <point x="649" y="-56" type="line"/>
      <point x="649" y="523" type="line"/>
      <point x="718" y="523" type="line"/>
      <point x="718" y="619" type="line"/>
      <point x="-10" y="619" type="line"/>
    </contour>
    <contour>
      <point x="291" y="219" type="curve" smooth="yes"/>
      <point x="335" y="216"/>
      <point x="427" y="216"/>
      <point x="427" y="216" type="curve"/>
      <point x="360" y="296" type="line"/>
      <point x="360" y="296"/>
      <point x="248" y="304"/>
      <point x="208" y="291" type="curve" smooth="yes"/>
      <point x="201" y="289"/>
      <point x="195" y="286"/>
      <point x="189" y="283" type="curve"/>
      <point x="182" y="332"/>
      <point x="221" y="388"/>
      <point x="275" y="388" type="curve" smooth="yes"/>
      <point x="316" y="388"/>
      <point x="429" y="391"/>
      <point x="429" y="391" type="curve"/>
      <point x="430" y="523" type="line"/>
      <point x="525" y="523" type="line"/>
      <point x="525" y="197" type="line"/>
      <point x="189" y="-104"/>
      <point x="87" y="233"/>
    </contour>
  </outline>
</glyph>
<glyph name="dvGHA" format="1">
  <advance width="708"/>
  <outline>
    <contour>
      <point x="-11" y="523" type="line"/>
      <point x="150" y="523" type="line"/>
      <point x="28" y="431"/>
      <point x="106" y="344"/>
      <point x="183" y="309" type="curve"/>
      <point x="122" y="268"/>
      <point x="75" y="213"/>
      <point x="105" y="178" type="curve" smooth="yes"/>
      <point x="147" y="128"/>
      <point x="195" y="88"/>
      <point x="237" y="50" type="curve" smooth="yes"/>
      <point x="282" y="8"/>
      <point x="413" y="29"/>
      <point x="507" y="114" type="curve"/>
      <point x="507" y="1" type="line"/>
      <point x="631" y="-55" type="line"/>
      <point x="631" y="523" type="line"/>
      <point x="716" y="523" type="line"/>
      <point x="716" y="619" type="line"/>
      <point x="-11" y="619" type="line"/>
    </contour>
    <contour>
      <point x="325" y="364" type="line"/>
      <point x="301" y="366"/>
      <point x="262" y="353"/>
      <point x="223" y="333" type="curve"/>
      <point x="131" y="392"/>
      <point x="205" y="478"/>
      <point x="322" y="523" type="curve"/>
      <point x="507" y="523" type="line"/>
      <point x="507" y="298" type="line"/>
      <point x="456" y="182"/>
      <point x="278" y="73"/>
      <point x="221" y="127" type="curve" smooth="yes"/>
      <point x="158" y="187"/>
      <point x="291" y="268"/>
      <point x="399" y="287" type="curve"/>
    </contour>
  </outline>
</glyph>
<glyph name="dvG_DH_VA" format="1">
  <advance width="1302"/>
  <outline>
    <contour>
      <point x="-5" y="523" type="line"/>
      <point x="155" y="523" type="line"/>
      <point x="215" y="444"/>
      <point x="223" y="297"/>
      <point x="164" y="212" type="curve"/>
      <point x="158" y="237"/>
      <point x="157" y="250"/>
      <point x="145" y="261" type="curve" smooth="yes"/>
      <point x="137" y="268"/>
      <point x="88" y="299"/>
      <point x="84" y="298" type="curve" smooth="yes"/>
      <point x="48" y="285"/>
      <point x="32" y="193"/>
      <point x="44" y="165" type="curve" smooth="yes"/>
      <point x="53" y="145"/>
      <point x="116" y="70"/>
      <point x="141" y="70" type="curve" smooth="yes"/>
      <point x="314" y="70"/>
      <point x="387" y="327"/>
      <point x="207" y="523" type="curve"/>
      <point x="457" y="523" type="line"/>
      <point x="507" y="619" type="line"/>
      <point x="-5" y="619" type="line"/>
    </contour>
    <contour>
      <point x="699" y="523" type="line"/>
      <point x="987" y="523" type="line"/>
      <point x="987" y="619" type="line"/>
      <point x="660" y="619" type="line"/>
    </contour>
    <component base="dvVA" xOffset="725"/>
    <component base="dvDH" xOffset="310"/>
  </outline>
</glyph>
<glyph name="dvGx_RA" format="1">
  <advance width="703"/>
  <outline>
    <contour>
      <point x="502" y="0" type="line"/>
      <point x="626" y="-56" type="line"/>
      <point x="626" y="523" type="line"/>
      <point x="708" y="523" type="line"/>
      <point x="708" y="619" type="line"/>
      <point x="-14" y="619" type="line"/>
      <point x="-14" y="523" type="line"/>
      <point x="206" y="523" type="line"/>
      <point x="266" y="444"/>
      <point x="274" y="317"/>
      <point x="215" y="232" type="curve"/>
      <point x="209" y="257"/>
      <point x="208" y="270"/>
      <point x="196" y="281" type="curve" smooth="yes"/>
      <point x="188" y="288"/>
      <point x="139" y="319"/>
      <point x="135" y="318" type="curve" smooth="yes"/>
      <point x="99" y="305"/>
      <point x="83" y="213"/>
      <point x="95" y="185" type="curve" smooth="yes"/>
      <point x="104" y="165"/>
      <point x="167" y="90"/>
      <point x="192" y="90" type="curve" smooth="yes"/>
      <point x="365" y="90"/>
      <point x="438" y="327"/>
      <point x="258" y="523" type="curve"/>
      <point x="502" y="523" type="line"/>
      <point x="502" y="198" type="line"/>
      <point x="440" y="127"/>
      <point x="360" y="66"/>
      <point x="273" y="2" type="curve"/>
      <point x="357" y="-64" type="line"/>
      <point x="427" y="-8"/>
      <point x="471" y="50"/>
      <point x="502" y="97" type="curve"/>
    </contour>
    <component base="dvNukta" xOffset="449" yOffset="120"/>
  </outline>
</glyph>
<glyph name="dvJ_J_YA" format="1">
  <advance width="1780"/>
  <outline>
    <contour>
      <point x="341" y="305" type="line"/>
      <point x="413" y="305" type="line"/>
      <point x="467" y="225"/>
      <point x="390" y="182"/>
      <point x="352" y="171" type="curve" smooth="yes"/>
      <point x="237" y="138"/>
      <point x="116" y="301"/>
      <point x="54" y="376" type="curve"/>
      <point x="28" y="360" type="line"/>
      <point x="114" y="233"/>
      <point x="207" y="105"/>
      <point x="259" y="69" type="curve" smooth="yes"/>
      <point x="346" y="10"/>
      <point x="581" y="112"/>
      <point x="547" y="216" type="curve" smooth="yes"/>
      <point x="541" y="233"/>
      <point x="511" y="272"/>
      <point x="474" y="305" type="curve"/>
      <point x="647" y="305" type="line"/>
      <point x="568" y="401" type="line"/>
      <point x="232" y="401" type="line"/>
    </contour>
    <contour>
      <point x="-13" y="523" type="line"/>
      <point x="781" y="523" type="line"/>
      <point x="781" y="619" type="line"/>
      <point x="-13" y="619" type="line"/>
    </contour>
    <component base="dvYA" xOffset="1114"/>
    <component base="dvJ" xOffset="527"/>
  </outline>
</glyph>
<glyph name="dvK_R" format="1">
  <advance width="678"/>
  <outline>
    <contour>
      <point x="-27" y="523" type="line"/>
      <point x="375" y="523" type="line"/>
      <point x="375" y="386" type="line"/>
      <point x="339" y="409"/>
      <point x="294" y="440"/>
      <point x="268" y="459" type="curve"/>
      <point x="209" y="499"/>
      <point x="-10" y="347"/>
      <point x="35" y="262" type="curve" smooth="yes"/>
      <point x="65" y="203"/>
      <point x="121" y="128"/>
      <point x="198" y="103" type="curve"/>
      <point x="164" y="80"/>
      <point x="131" y="58"/>
      <point x="103" y="37" type="curve"/>
      <point x="187" y="-29" type="line"/>
      <point x="255" y="35"/>
      <point x="328" y="101"/>
      <point x="375" y="151" type="curve"/>
      <point x="375" y="0" type="line"/>
      <point x="500" y="-56" type="line"/>
      <point x="500" y="247" type="line"/>
      <point x="540" y="328"/>
      <point x="690" y="403"/>
      <point x="761" y="248" type="curve"/>
      <point x="823" y="290" type="line"/>
      <point x="782" y="375"/>
      <point x="682" y="464"/>
      <point x="641" y="466" type="curve" smooth="yes"/>
      <point x="583" y="468"/>
      <point x="533" y="422"/>
      <point x="500" y="391" type="curve"/>
      <point x="500" y="523" type="line"/>
      <point x="843" y="523" type="line"/>
      <point x="843" y="619" type="line"/>
      <point x="-27" y="619" type="line"/>
    </contour>
    <contour>
      <point x="132" y="200" type="curve"/>
      <point x="81" y="253"/>
      <point x="232" y="422"/>
      <point x="375" y="333" type="curve"/>
      <point x="375" y="276" type="line"/>
      <point x="267" y="152"/>
      <point x="157" y="172"/>
    </contour>
  </outline>
</glyph>
<glyph name="dvK_SHA" format="1">
  <advance width="1419"/>
  <outline>
    <contour>
      <point x="-18" y="523" type="line"/>
      <point x="384" y="523" type="line"/>
      <point x="384" y="386" type="line"/>
      <point x="348" y="409"/>
      <point x="303" y="440"/>
      <point x="277" y="459" type="curve"/>
      <point x="218" y="499"/>
      <point x="-1" y="347"/>
      <point x="44" y="262" type="curve" smooth="yes"/>
      <point x="81" y="190"/>
      <point x="156" y="70"/>
      <point x="262" y="70" type="curve" smooth="yes"/>
      <point x="312" y="70"/>
      <point x="354" y="105"/>
      <point x="384" y="140" type="curve"/>
      <point x="384" y="0" type="line"/>
      <point x="509" y="-56" type="line"/>
      <point x="509" y="247" type="line"/>
      <point x="549" y="328"/>
      <point x="676" y="414"/>
      <point x="761" y="208" type="curve"/>
      <point x="823" y="250" type="line"/>
      <point x="782" y="335"/>
      <point x="691" y="464"/>
      <point x="650" y="466" type="curve" smooth="yes"/>
      <point x="592" y="468"/>
      <point x="542" y="422"/>
      <point x="509" y="391" type="curve"/>
      <point x="509" y="523" type="line"/>
      <point x="902" y="523" type="line"/>
      <point x="902" y="619" type="line"/>
      <point x="-18" y="619" type="line"/>
    </contour>
    <contour>
      <point x="141" y="200" type="curve"/>
      <point x="90" y="253"/>
      <point x="241" y="422"/>
      <point x="384" y="333" type="curve"/>
      <point x="384" y="270" type="line"/>
      <point x="277" y="126"/>
      <point x="166" y="172"/>
    </contour>
    <component base="dvSHA" xOffset="722"/>
  </outline>
</glyph>
<glyph name="dvK_S_P_RA" format="1">
  <advance width="1757"/>
  <outline>
    <contour>
      <point x="1642" y="278" type="line"/>
      <point x="1580" y="205"/>
      <point x="1376" y="76"/>
      <point x="1277" y="10" type="curve"/>
      <point x="1361" y="-56" type="line"/>
      <point x="1463" y="27"/>
      <point x="1634" y="183"/>
      <point x="1665" y="233" type="curve"/>
    </contour>
    <component base="dvPA" xOffset="1150"/>
    <component base="dvS" xOffset="683"/>
    <component base="dvK" xOffset="7"/>
  </outline>
</glyph>
<glyph name="dvK_TTA" format="1">
  <advance width="1272"/>
  <outline>
    <contour>
      <point x="977" y="0" type="move" name="blwm.virama"/>
    </contour>
    <contour>
      <point x="1076" y="619" type="move" name="abvm.bindu"/>
    </contour>
    <contour>
      <point x="1036" y="-10" type="move" name="blwm.u"/>
    </contour>
    <contour>
      <point x="1076" y="619" type="move" name="abvm.e"/>
    </contour>
    <component base="dvTTA" xOffset="666"/>
    <component base="dvK" xOffset="15"/>
  </outline>
</glyph>
<glyph name="dvL_D_RA" format="1">
  <advance width="1040"/>
  <outline>
    <contour>
      <point x="1002" y="-100" type="move" name="blwm.virama"/>
    </contour>
    <contour>
      <point x="853" y="617" type="move" name="abvm.bindu"/>
    </contour>
    <contour>
      <point x="989" y="-87" type="move" name="blwm.u"/>
    </contour>
    <contour>
      <point x="848" y="619" type="move" name="abvm.e"/>
    </contour>
    <contour>
      <point x="604" y="-67" type="line"/>
      <point x="679" y="-142" type="line"/>
      <point x="908" y="26" type="line"/>
      <point x="857" y="74" type="line"/>
    </contour>
    <component base="dvL" xOffset="3"/>
    <component base="dvDA" xOffset="439"/>
  </outline>
</glyph>
<glyph name="dvL_GA" format="1">
  <advance width="1084"/>
  <outline>
    <contour>
      <point x="600" y="255" type="line"/>
      <point x="594" y="268"/>
      <point x="488" y="403"/>
      <point x="467" y="394" type="curve" smooth="yes"/>
      <point x="423" y="374"/>
      <point x="380" y="339"/>
      <point x="346" y="302" type="curve"/>
      <point x="309" y="341"/>
      <point x="247" y="401"/>
      <point x="209" y="414" type="curve" smooth="yes"/>
      <point x="154" y="432"/>
      <point x="8" y="319"/>
      <point x="16" y="253" type="curve" smooth="yes"/>
      <point x="24" y="190"/>
      <point x="159" y="30"/>
      <point x="258" y="-57" type="curve"/>
      <point x="285" y="-23" type="line"/>
      <point x="175" y="65"/>
      <point x="99" y="226"/>
      <point x="159" y="285" type="curve" smooth="yes"/>
      <point x="193" y="318"/>
      <point x="248" y="316"/>
      <point x="318" y="268" type="curve"/>
      <point x="299" y="243"/>
      <point x="286" y="219"/>
      <point x="280" y="200" type="curve"/>
      <point x="357" y="135" type="line"/>
      <point x="394" y="200"/>
      <point x="442" y="268"/>
      <point x="477" y="279" type="curve" smooth="yes"/>
      <point x="508" y="289"/>
      <point x="555" y="246"/>
      <point x="563" y="237" type="curve"/>
    </contour>
    <contour>
      <point x="-10" y="523" type="line"/>
      <point x="526" y="523" type="line"/>
      <point x="526" y="619" type="line"/>
      <point x="-10" y="619" type="line"/>
    </contour>
    <component base="dvGA" xOffset="450"/>
  </outline>
</glyph>
<glyph name="dvM" format="1">
  <advance width="414"/>
  <outline>
    <contour>
      <point x="-7" y="523" type="line"/>
      <point x="173" y="523" type="line"/>
      <point x="173" y="273" type="line"/>
      <point x="15" y="280"/>
      <point x="4" y="156"/>
      <point x="35" y="119" type="curve" smooth="yes"/>
      <point x="68" y="80"/>
      <point x="119" y="41"/>
      <point x="141" y="26" type="curve" smooth="yes"/>
      <point x="169" y="7"/>
      <point x="297" y="-9"/>
      <point x="297" y="172" type="curve"/>
      <point x="544" y="172" type="line"/>
      <point x="544" y="271" type="line"/>
      <point x="297" y="270" type="line"/>
      <point x="297" y="523" type="line"/>
      <point x="553" y="523" type="line"/>
      <point x="553" y="619" type="line"/>
      <point x="-7" y="619" type="line"/>
    </contour>
    <contour>
      <point x="172" y="176" type="curve"/>
      <point x="173" y="99"/>
      <point x="126" y="97"/>
      <point x="110" y="115" type="curve" smooth="yes"/>
      <point x="90" y="138"/>
      <point x="106" y="184"/>
    </contour>
  </outline>
</glyph>
<glyph name="dvM_NA" format="1">
  <advance width="805"/>
  <outline>
    <contour>
      <point x="-7" y="523" type="line"/>
      <point x="173" y="523" type="line"/>
      <point x="173" y="273" type="line"/>
      <point x="15" y="280"/>
      <point x="4" y="156"/>
      <point x="35" y="119" type="curve" smooth="yes"/>
      <point x="68" y="80"/>
      <point x="119" y="41"/>
      <point x="141" y="26" type="curve" smooth="yes"/>
      <point x="169" y="7"/>
      <point x="297" y="-9"/>
      <point x="297" y="172" type="curve"/>
      <point x="573" y="172" type="line"/>
      <point x="483" y="148"/>
      <point x="377" y="120"/>
      <point x="367" y="115" type="curve"/>
      <point x="314" y="78"/>
      <point x="283" y="-4"/>
      <point x="347" y="-47" type="curve" smooth="yes"/>
      <point x="387" y="-75"/>
      <point x="417" y="-91"/>
      <point x="472" y="-117" type="curve" smooth="yes"/>
      <point x="518" y="-139"/>
      <point x="635" y="-10"/>
      <point x="546" y="66" type="curve"/>
      <point x="612" y="83" type="line"/>
      <point x="612" y="0" type="line"/>
      <point x="736" y="-56" type="line"/>
      <point x="736" y="523" type="line"/>
      <point x="811" y="523" type="line"/>
      <point x="811" y="619" type="line"/>
      <point x="-7" y="619" type="line"/>
    </contour>
    <contour>
      <point x="612" y="271" type="line"/>
      <point x="297" y="270" type="line"/>
      <point x="297" y="523" type="line"/>
      <point x="612" y="523" type="line"/>
    </contour>
    <contour>
      <point x="492" y="52" type="curve"/>
      <point x="503" y="-22"/>
      <point x="438" y="-65"/>
      <point x="403" y="-27" type="curve" smooth="yes"/>
      <point x="372" y="8"/>
      <point x="438" y="44"/>
    </contour>
    <contour>
      <point x="172" y="176" type="curve"/>
      <point x="173" y="99"/>
      <point x="126" y="97"/>
      <point x="110" y="115" type="curve" smooth="yes"/>
      <point x="90" y="138"/>
      <point x="106" y="184"/>
    </contour>
  </outline>
</glyph>
<glyph name="dvPH" format="1">
  <advance width="673"/>
  <outline>
    <contour>
      <point x="-3" y="522" type="line"/>
      <point x="60" y="522" type="line"/>
      <point x="60" y="464"/>
      <point x="58" y="256"/>
      <point x="66" y="248" type="curve" smooth="yes"/>
      <point x="130" y="180"/>
      <point x="221" y="71"/>
      <point x="297" y="71" type="curve" smooth="yes"/>
      <point x="338" y="71"/>
      <point x="379" y="99"/>
      <point x="415" y="133" type="curve"/>
      <point x="415" y="1" type="line"/>
      <point x="539" y="-55" type="line"/>
      <point x="539" y="257" type="line"/>
      <point x="597" y="309"/>
      <point x="691" y="332"/>
      <point x="746" y="252" type="curve"/>
      <point x="808" y="294" type="line"/>
      <point x="767" y="379"/>
      <point x="682" y="424"/>
      <point x="641" y="426" type="curve" smooth="yes"/>
      <point x="602" y="427"/>
      <point x="568" y="408"/>
      <point x="539" y="385" type="curve"/>
      <point x="539" y="522" type="line"/>
      <point x="886" y="522" type="line"/>
      <point x="886" y="619" type="line"/>
      <point x="-3" y="619" type="line"/>
    </contour>
    <contour>
      <point x="185" y="208" type="curve"/>
      <point x="183" y="522" type="line"/>
      <point x="415" y="522" type="line"/>
      <point x="415" y="292" type="line"/>
      <point x="365" y="207"/>
      <point x="240" y="149"/>
    </contour>
  </outline>
</glyph>
<glyph name="dvPHA" format="1">
  <advance width="882"/>
  <outline>
    <contour>
      <point x="444" y="-1" type="move" name="blwm.virama"/>
    </contour>
    <contour>
      <point x="508" y="620" type="move" name="abvm.bindu"/>
    </contour>
    <contour>
      <point x="467" y="-14" type="move" name="blwm.u"/>
    </contour>
    <contour>
      <point x="491" y="619" type="move" name="abvm.e"/>
    </contour>
    <contour>
      <point x="-3" y="523" type="line"/>
      <point x="60" y="523" type="line"/>
      <point x="60" y="467"/>
      <point x="58" y="256"/>
      <point x="66" y="248" type="curve" smooth="yes"/>
      <point x="130" y="180"/>
      <point x="221" y="71"/>
      <point x="297" y="71" type="curve" smooth="yes"/>
      <point x="338" y="71"/>
      <point x="379" y="99"/>
      <point x="415" y="133" type="curve"/>
      <point x="415" y="1" type="line"/>
      <point x="539" y="-55" type="line"/>
      <point x="539" y="250" type="line"/>
      <point x="565" y="277"/>
      <point x="591" y="297"/>
      <point x="623" y="308" type="curve"/>
      <point x="825" y="372"/>
      <point x="730" y="122"/>
      <point x="624" y="68" type="curve"/>
      <point x="722" y="-5" type="line"/>
      <point x="797" y="42"/>
      <point x="880" y="188"/>
      <point x="833" y="260" type="curve" smooth="yes"/>
      <point x="800" y="309"/>
      <point x="682" y="424"/>
      <point x="641" y="426" type="curve" smooth="yes"/>
      <point x="602" y="427"/>
      <point x="568" y="408"/>
      <point x="539" y="385" type="curve"/>
      <point x="539" y="523" type="line"/>
      <point x="886" y="523" type="line"/>
      <point x="886" y="619" type="line"/>
      <point x="-3" y="619" type="line"/>
    </contour>
    <contour>
      <point x="185" y="208" type="curve"/>
      <point x="183" y="523" type="line"/>
      <point x="415" y="523" type="line"/>
      <point x="415" y="292" type="line"/>
      <point x="365" y="207"/>
      <point x="240" y="149"/>
    </contour>
  </outline>
</glyph>
<glyph name="dvP_NA" format="1">
  <advance width="605"/>
  <outline>
    <contour>
      <point x="487" y="223" type="line"/>
      <point x="487" y="223"/>
      <point x="94" y="109"/>
      <point x="76" y="101" type="curve"/>
      <point x="24" y="62"/>
      <point x="-6" y="-21"/>
      <point x="59" y="-62" type="curve" smooth="yes"/>
      <point x="100" y="-90"/>
      <point x="130" y="-105"/>
      <point x="185" y="-129" type="curve" smooth="yes"/>
      <point x="232" y="-150"/>
      <point x="346" y="-18"/>
      <point x="255" y="55" type="curve"/>
      <point x="513" y="131" type="line"/>
    </contour>
    <contour>
      <point x="202" y="40" type="curve"/>
      <point x="214" y="-34"/>
      <point x="151" y="-79"/>
      <point x="115" y="-41" type="curve" smooth="yes"/>
      <point x="83" y="-7"/>
      <point x="148" y="31"/>
    </contour>
    <component base="dvPA" xOffset="-2"/>
  </outline>
</glyph>
<glyph name="dvSH_CA" format="1">
  <advance width="756"/>
  <outline>
    <contour>
      <point x="152" y="149" type="line"/>
      <point x="238" y="149" type="line"/>
      <point x="223" y="127"/>
      <point x="218" y="104"/>
      <point x="232" y="87" type="curve" smooth="yes"/>
      <point x="283" y="24"/>
      <point x="299" y="14"/>
      <point x="358" y="-37" type="curve" smooth="yes"/>
      <point x="394" y="-68"/>
      <point x="478" y="-45"/>
      <point x="565" y="44" type="curve"/>
      <point x="565" y="1" type="line"/>
      <point x="689" y="-55" type="line"/>
      <point x="689" y="523" type="line"/>
      <point x="760" y="523" type="line"/>
      <point x="760" y="619" type="line"/>
      <point x="473" y="619" type="line"/>
      <point x="512" y="523" type="line"/>
      <point x="565" y="523" type="line"/>
      <point x="565" y="380" type="line"/>
      <point x="534" y="338"/>
      <point x="484" y="300"/>
      <point x="416" y="313" type="curve"/>
      <point x="497" y="350"/>
      <point x="526" y="405"/>
      <point x="499" y="453" type="curve" smooth="yes"/>
      <point x="465" y="512"/>
      <point x="364" y="627"/>
      <point x="339" y="627" type="curve" smooth="yes"/>
      <point x="244" y="627"/>
      <point x="142" y="473"/>
      <point x="172" y="425" type="curve" smooth="yes"/>
      <point x="189" y="398"/>
      <point x="214" y="375"/>
      <point x="244" y="355" type="curve"/>
      <point x="178" y="344"/>
      <point x="101" y="344"/>
      <point x="25" y="359" type="curve"/>
      <point x="110" y="274" type="line"/>
      <point x="218" y="265"/>
      <point x="305" y="275"/>
      <point x="370" y="295" type="curve"/>
      <point x="434" y="267"/>
      <point x="502" y="254"/>
      <point x="565" y="266" type="curve"/>
      <point x="565" y="188" type="line"/>
      <point x="402" y="-60"/>
      <point x="187" y="53"/>
      <point x="438" y="149" type="curve"/>
      <point x="344" y="229" type="line"/>
      <point x="60" y="229" type="line"/>
    </contour>
    <contour>
      <point x="403" y="511" type="curve" smooth="yes"/>
      <point x="462" y="457"/>
      <point x="412" y="402"/>
      <point x="315" y="371" type="curve"/>
      <point x="224" y="475"/>
      <point x="346" y="564"/>
    </contour>
  </outline>
</glyph>
<glyph name="dvSS_PHA" format="1">
  <advance width="1217"/>
  <outline>
    <contour>
      <point x="818" y="-22" type="move" name="blwm.virama"/>
    </contour>
    <contour>
      <point x="825" y="619" type="move" name="abvm.bindu"/>
    </contour>
    <contour>
      <point x="826" y="-29" type="move" name="blwm.u"/>
    </contour>
    <contour>
      <point x="833" y="619" type="move" name="abvm.e"/>
    </contour>
    <component base="dvSS" xOffset="1"/>
    <component base="dvPHA" xOffset="352"/>
  </outline>
</glyph>
<glyph name="dvS_NA" format="1">
  <advance width="850"/>
  <outline>
    <contour>
      <point x="707" y="1" type="line"/>
      <point x="831" y="-55" type="line"/>
      <point x="831" y="523" type="line"/>
      <point x="885" y="523" type="line"/>
      <point x="885" y="619" type="line"/>
      <point x="-3" y="619" type="line"/>
      <point x="-3" y="523" type="line"/>
      <point x="237" y="523" type="line"/>
      <point x="270" y="432"/>
      <point x="281" y="306"/>
      <point x="169" y="269" type="curve"/>
      <point x="158" y="306"/>
      <point x="158" y="338"/>
      <point x="146" y="351" type="curve"/>
      <point x="126" y="370"/>
      <point x="84" y="398"/>
      <point x="70" y="382" type="curve" smooth="yes"/>
      <point x="52" y="361"/>
      <point x="36" y="324"/>
      <point x="24" y="290" type="curve"/>
      <point x="84" y="122"/>
      <point x="196" y="41"/>
      <point x="325" y="-28" type="curve"/>
      <point x="353" y="9" type="line"/>
      <point x="258" y="56"/>
      <point x="228" y="116"/>
      <point x="202" y="166" type="curve"/>
      <point x="256" y="184"/>
      <point x="296" y="212"/>
      <point x="322" y="247" type="curve"/>
      <point x="336" y="239"/>
      <point x="437" y="180"/>
      <point x="478" y="180" type="curve" smooth="yes"/>
      <point x="525" y="180"/>
      <point x="632" y="206"/>
      <point x="707" y="227" type="curve"/>
      <point x="707" y="182" type="line"/>
      <point x="606" y="153"/>
      <point x="451" y="108"/>
      <point x="439" y="103" type="curve"/>
      <point x="387" y="63"/>
      <point x="360" y="-20"/>
      <point x="425" y="-61" type="curve" smooth="yes"/>
      <point x="466" y="-87"/>
      <point x="496" y="-102"/>
      <point x="552" y="-125" type="curve" smooth="yes"/>
      <point x="599" y="-145"/>
      <point x="711" y="-12"/>
      <point x="619" y="60" type="curve"/>
      <point x="707" y="84" type="line"/>
    </contour>
    <contour>
      <point x="305" y="523" type="curve"/>
      <point x="707" y="523" type="line"/>
      <point x="707" y="348" type="line"/>
      <point x="592" y="243"/>
      <point x="391" y="251"/>
      <point x="342" y="283" type="curve"/>
      <point x="373" y="354"/>
      <point x="358" y="442"/>
    </contour>
    <contour>
      <point x="567" y="44" type="curve"/>
      <point x="580" y="-29"/>
      <point x="517" y="-75"/>
      <point x="481" y="-38" type="curve" smooth="yes"/>
      <point x="448" y="-4"/>
      <point x="513" y="34"/>
    </contour>
  </outline>
</glyph>
<glyph name="dvS_RA" format="1">
  <advance width="770"/>
  <outline>
    <contour>
      <point x="597" y="1" type="line"/>
      <point x="721" y="-55" type="line"/>
      <point x="721" y="523" type="line"/>
      <point x="775" y="523" type="line"/>
      <point x="775" y="619" type="line"/>
      <point x="-3" y="619" type="line"/>
      <point x="-3" y="523" type="line"/>
      <point x="237" y="523" type="line"/>
      <point x="270" y="432"/>
      <point x="281" y="306"/>
      <point x="169" y="269" type="curve"/>
      <point x="158" y="306"/>
      <point x="158" y="338"/>
      <point x="146" y="351" type="curve"/>
      <point x="126" y="370"/>
      <point x="84" y="398"/>
      <point x="70" y="382" type="curve" smooth="yes"/>
      <point x="52" y="361"/>
      <point x="36" y="324"/>
      <point x="24" y="290" type="curve"/>
      <point x="84" y="122"/>
      <point x="236" y="3"/>
      <point x="365" y="-66" type="curve"/>
      <point x="393" y="-29" type="line"/>
      <point x="298" y="18"/>
      <point x="228" y="116"/>
      <point x="202" y="166" type="curve"/>
      <point x="256" y="184"/>
      <point x="296" y="212"/>
      <point x="322" y="247" type="curve"/>
      <point x="332" y="240"/>
      <point x="432" y="173"/>
      <point x="474" y="173" type="curve" smooth="yes"/>
      <point x="511" y="173"/>
      <point x="556" y="189"/>
      <point x="597" y="207" type="curve"/>
      <point x="597" y="206" type="line"/>
      <point x="538" y="141"/>
      <point x="469" y="86"/>
      <point x="371" y="31" type="curve"/>
      <point x="455" y="-35" type="line"/>
      <point x="507" y="2"/>
      <point x="560" y="53"/>
      <point x="597" y="99" type="curve"/>
    </contour>
    <contour>
      <point x="305" y="523" type="curve"/>
      <point x="597" y="523" type="line"/>
      <point x="597" y="339" type="line"/>
      <point x="528" y="227"/>
      <point x="385" y="250"/>
      <point x="342" y="283" type="curve"/>
      <point x="373" y="353"/>
      <point x="358" y="442"/>
    </contour>
  </outline>
</glyph>
<glyph name="dvTTH_VA" format="1">
  <advance width="605"/>
  <outline>
    <contour>
      <point x="432" y="-239" type="move" name="blwm.virama"/>
    </contour>
    <contour>
      <point x="420" y="619" type="move" name="abvm.bindu"/>
    </contour>
    <contour>
      <point x="436" y="-234" type="move" name="blwm.u"/>
    </contour>
    <contour>
      <point x="417" y="619" type="move" name="abvm.e"/>
    </contour>
    <contour>
      <point x="-8" y="523" type="line"/>
      <point x="349" y="523" type="line"/>
      <point x="349" y="469" type="line"/>
      <point x="192" y="457" type="line"/>
      <point x="115" y="449"/>
      <point x="46" y="305"/>
      <point x="96" y="231" type="curve" smooth="yes"/>
      <point x="122" y="192"/>
      <point x="142" y="161"/>
      <point x="169" y="131" type="curve"/>
      <point x="111" y="91"/>
      <point x="72" y="33"/>
      <point x="96" y="-13" type="curve" smooth="yes"/>
      <point x="167" y="-152"/>
      <point x="263" y="-257"/>
      <point x="386" y="-164" type="curve"/>
      <point x="386" y="-216" type="line"/>
      <point x="496" y="-264" type="line"/>
      <point x="496" y="107" type="line"/>
      <point x="588" y="188"/>
      <point x="623" y="324"/>
      <point x="460" y="419" type="curve"/>
      <point x="460" y="523" type="line"/>
      <point x="610" y="523" type="line"/>
      <point x="610" y="619" type="line"/>
      <point x="-8" y="619" type="line"/>
    </contour>
    <contour>
      <point x="308" y="133" type="curve" smooth="yes"/>
      <point x="119" y="136"/>
      <point x="189" y="397"/>
      <point x="294" y="395" type="curve" smooth="yes"/>
      <point x="456" y="392" type="line"/>
      <point x="558" y="248"/>
      <point x="424" y="131"/>
    </contour>
    <contour>
      <point x="386" y="47" type="curve"/>
      <point x="386" y="-42" type="line"/>
      <point x="295" y="-133"/>
      <point x="215" y="-99"/>
      <point x="193" y="-75" type="curve" smooth="yes"/>
      <point x="159" y="-40"/>
      <point x="182" y="17"/>
      <point x="258" y="54" type="curve"/>
      <point x="297" y="36"/>
      <point x="342" y="35"/>
    </contour>
  </outline>
</glyph>
<glyph name="dvT_S_YA" format="1">
  <advance width="1518"/>
  <outline>
    <contour>
      <point x="-20" y="523" type="line"/>
      <point x="629" y="523" type="line"/>
      <point x="662" y="432"/>
      <point x="673" y="306"/>
      <point x="561" y="269" type="curve"/>
      <point x="550" y="306"/>
      <point x="550" y="338"/>
      <point x="538" y="351" type="curve"/>
      <point x="519" y="368"/>
      <point x="482" y="394"/>
      <point x="465" y="385" type="curve"/>
      <point x="214" y="387" type="line" smooth="yes"/>
      <point x="101" y="388"/>
      <point x="34" y="235"/>
      <point x="41" y="195" type="curve"/>
      <point x="50" y="133"/>
      <point x="168" y="31"/>
      <point x="267" y="-56" type="curve"/>
      <point x="302" y="-27" type="line"/>
      <point x="253" y="20"/>
      <point x="243" y="32"/>
      <point x="216" y="62" type="curve" smooth="yes"/>
      <point x="109" y="182"/>
      <point x="163" y="295"/>
      <point x="285" y="292" type="curve" smooth="yes"/>
      <point x="416" y="289" type="line"/>
      <point x="476" y="122"/>
      <point x="650" y="20"/>
      <point x="771" y="-56" type="curve"/>
      <point x="799" y="-19" type="line"/>
      <point x="733" y="26"/>
      <point x="620" y="116"/>
      <point x="594" y="166" type="curve"/>
      <point x="641" y="181"/>
      <point x="677" y="205"/>
      <point x="703" y="234" type="curve"/>
      <point x="735" y="212"/>
      <point x="800" y="171"/>
      <point x="832" y="171" type="curve" smooth="yes"/>
      <point x="910" y="171"/>
      <point x="1012" y="261"/>
      <point x="1012" y="261" type="curve"/>
      <point x="896" y="318" type="line"/>
      <point x="853" y="265"/>
      <point x="775" y="254"/>
      <point x="728" y="270" type="curve"/>
      <point x="767" y="342"/>
      <point x="753" y="436"/>
      <point x="697" y="523" type="curve"/>
      <point x="1037" y="523" type="line"/>
      <point x="1037" y="619" type="line"/>
      <point x="-20" y="619" type="line"/>
    </contour>
    <component base="dvYA" xOffset="839"/>
  </outline>
</glyph>
<glyph name="dvmI.a11" format="1">
  <advance width="270"/>
  <outline>
    <contour>
      <point x="1087" y="592" type="move" name="abvm.i"/>
    </contour>
    <contour>
      <point x="-3" y="523" type="line"/>
      <point x="73" y="523" type="line"/>
      <point x="73" y="-1" type="line"/>
      <point x="197" y="-57" type="line"/>
      <point x="197" y="523" type="line"/>
      <point x="274" y="523" type="line"/>
      <point x="274" y="619" type="line"/>
      <point x="192" y="619" type="line"/>
      <point x="146" y="841"/>
      <point x="687" y="750"/>
      <point x="1049" y="601" type="curve"/>
      <point x="1153" y="600" type="line"/>
      <point x="1097" y="625"/>
      <point x="497" y="860"/>
      <point x="410" y="860" type="curve" smooth="yes"/>
      <point x="372" y="860"/>
      <point x="75" y="806"/>
      <point x="59" y="763" type="curve" smooth="yes"/>
      <point x="45" y="724"/>
      <point x="57" y="675"/>
      <point x="75" y="619" type="curve"/>
      <point x="-3" y="619" type="line"/>
    </contour>
  </outline>
</glyph>
<glyph name="dvmvRR" format="1">
  <advance width="0"/>
  <outline>
    <contour>
      <point x="-139" y="-10" type="move" name="_blwm.virama"/>
    </contour>
    <contour>
      <point x="-112" y="-182" type="line"/>
      <point x="-138" y="-188"/>
      <point x="-161" y="-196"/>
      <point x="-181" y="-204" type="curve"/>
      <point x="-277" y="-138"/>
      <point x="-130" y="-70"/>
      <point x="-68" y="-56" type="curve"/>
      <point x="-160" y="19" type="line"/>
      <point x="-389" y="-37"/>
      <point x="-323" y="-156"/>
      <point x="-225" y="-226" type="curve"/>
      <point x="-337" y="-296"/>
      <point x="-273" y="-395"/>
      <point x="-220" y="-432" type="curve" smooth="yes"/>
      <point x="-148" y="-483"/>
      <point x="-48" y="-514"/>
      <point x="38" y="-425" type="curve"/>
      <point x="-70" y="-362" type="line"/>
      <point x="-126" y="-423"/>
      <point x="-169" y="-418"/>
      <point x="-195" y="-398" type="curve" smooth="yes"/>
      <point x="-265" y="-343"/>
      <point x="-129" y="-272"/>
      <point x="-64" y="-257" type="curve"/>
    </contour>
  </outline>
</glyph>
<glyph name="dvvLL" format="1">
  <advance width="741"/>
  <outline>
    <contour>
      <point x="558" y="619" type="move" name="abvm.bindu"/>
    </contour>
    <contour>
      <point x="538" y="619" type="move" name="abvm.e"/>
    </contour>
    <contour>
      <point x="-10" y="523" type="line"/>
      <point x="485" y="523" type="line"/>
      <point x="485" y="400" type="line"/>
      <point x="484" y="400" type="line"/>
      <point x="422" y="397"/>
      <point x="371" y="353"/>
      <point x="333" y="304" type="curve"/>
      <point x="296" y="342"/>
      <point x="236" y="401"/>
      <point x="198" y="414" type="curve" smooth="yes"/>
      <point x="143" y="432"/>
      <point x="-3" y="319"/>
      <point x="5" y="253" type="curve" smooth="yes"/>
      <point x="13" y="190"/>
      <point x="148" y="30"/>
      <point x="247" y="-57" type="curve"/>
      <point x="274" y="-23" type="line"/>
      <point x="224" y="24"/>
      <point x="188" y="69"/>
      <point x="160" y="105" type="curve" smooth="yes"/>
      <point x="68" y="220"/>
      <point x="136" y="403"/>
      <point x="313" y="276" type="curve"/>
      <point x="289" y="239"/>
      <point x="274" y="203"/>
      <point x="270" y="185" type="curve"/>
      <point x="350" y="122" type="line"/>
      <point x="351" y="193"/>
      <point x="501" y="381"/>
      <point x="577" y="294" type="curve"/>
      <point x="667" y="194"/>
      <point x="347" y="155"/>
      <point x="471" y="11" type="curve" smooth="yes"/>
      <point x="485" y="-5"/>
      <point x="502" y="-21"/>
      <point x="521" y="-34" type="curve"/>
      <point x="420" y="-93"/>
      <point x="477" y="-177"/>
      <point x="526" y="-209" type="curve" smooth="yes"/>
      <point x="592" y="-252"/>
      <point x="683" y="-278"/>
      <point x="761" y="-203" type="curve"/>
      <point x="663" y="-149" type="line"/>
      <point x="612" y="-201"/>
      <point x="573" y="-197"/>
      <point x="549" y="-180" type="curve" smooth="yes"/>
      <point x="485" y="-133"/>
      <point x="609" y="-73"/>
      <point x="668" y="-61" type="curve"/>
      <point x="624" y="3" type="line"/>
      <point x="600" y="-2"/>
      <point x="580" y="-8"/>
      <point x="563" y="-15" type="curve"/>
      <point x="439" y="80"/>
      <point x="758" y="136"/>
      <point x="683" y="259" type="curve" smooth="yes"/>
      <point x="671" y="278"/>
      <point x="642" y="305"/>
      <point x="609" y="330" type="curve"/>
      <point x="609" y="523" type="line"/>
      <point x="747" y="523" type="line"/>
      <point x="747" y="619" type="line"/>
      <point x="-10" y="619" type="line"/>
    </contour>
  </outline>
</glyph>
